<mxfile host="app.diagrams.net" agent="Mozilla/5.0 (X11; Linux x86_64) AppleWebKit/537.36 (KHTML, like Gecko) Chrome/131.0.0.0 Safari/537.36" version="26.0.11">
  <diagram name="Page-1" id="sjRYy_9pcB5eoI-cidoD">
    <mxGraphModel dx="1467" dy="707" grid="1" gridSize="10" guides="1" tooltips="1" connect="1" arrows="1" fold="1" page="1" pageScale="1" pageWidth="850" pageHeight="1100" math="0" shadow="0">
      <root>
        <mxCell id="0" />
        <mxCell id="1" parent="0" />
        <mxCell id="rSFfT3zBbqfsnvvld2Uv-13" style="edgeStyle=orthogonalEdgeStyle;rounded=0;orthogonalLoop=1;jettySize=auto;html=1;exitX=0.5;exitY=0.5;exitDx=0;exitDy=0;exitPerimeter=0;entryX=0;entryY=0.5;entryDx=0;entryDy=0;" edge="1" parent="1" source="rSFfT3zBbqfsnvvld2Uv-4" target="rSFfT3zBbqfsnvvld2Uv-9">
          <mxGeometry relative="1" as="geometry" />
        </mxCell>
        <mxCell id="rSFfT3zBbqfsnvvld2Uv-14" style="edgeStyle=orthogonalEdgeStyle;rounded=0;orthogonalLoop=1;jettySize=auto;html=1;exitX=0.5;exitY=0.5;exitDx=0;exitDy=0;exitPerimeter=0;entryX=0;entryY=0.5;entryDx=0;entryDy=0;" edge="1" parent="1" source="rSFfT3zBbqfsnvvld2Uv-4">
          <mxGeometry relative="1" as="geometry">
            <mxPoint x="210" y="400" as="targetPoint" />
          </mxGeometry>
        </mxCell>
        <mxCell id="rSFfT3zBbqfsnvvld2Uv-75" style="edgeStyle=elbowEdgeStyle;rounded=0;orthogonalLoop=1;jettySize=auto;html=1;entryX=0;entryY=0.5;entryDx=0;entryDy=0;" edge="1" parent="1" source="rSFfT3zBbqfsnvvld2Uv-4" target="rSFfT3zBbqfsnvvld2Uv-71">
          <mxGeometry relative="1" as="geometry" />
        </mxCell>
        <mxCell id="rSFfT3zBbqfsnvvld2Uv-76" style="edgeStyle=elbowEdgeStyle;rounded=0;orthogonalLoop=1;jettySize=auto;html=1;entryX=0;entryY=0.5;entryDx=0;entryDy=0;" edge="1" parent="1" source="rSFfT3zBbqfsnvvld2Uv-4" target="rSFfT3zBbqfsnvvld2Uv-72">
          <mxGeometry relative="1" as="geometry" />
        </mxCell>
        <mxCell id="rSFfT3zBbqfsnvvld2Uv-78" style="edgeStyle=elbowEdgeStyle;rounded=0;orthogonalLoop=1;jettySize=auto;html=1;entryX=0;entryY=0.5;entryDx=0;entryDy=0;" edge="1" parent="1" source="rSFfT3zBbqfsnvvld2Uv-4" target="rSFfT3zBbqfsnvvld2Uv-77">
          <mxGeometry relative="1" as="geometry" />
        </mxCell>
        <mxCell id="rSFfT3zBbqfsnvvld2Uv-89" style="edgeStyle=elbowEdgeStyle;rounded=0;orthogonalLoop=1;jettySize=auto;html=1;entryX=0;entryY=0.5;entryDx=0;entryDy=0;" edge="1" parent="1" source="rSFfT3zBbqfsnvvld2Uv-4" target="rSFfT3zBbqfsnvvld2Uv-88">
          <mxGeometry relative="1" as="geometry" />
        </mxCell>
        <mxCell id="rSFfT3zBbqfsnvvld2Uv-108" style="edgeStyle=elbowEdgeStyle;rounded=0;orthogonalLoop=1;jettySize=auto;html=1;entryX=0;entryY=0.5;entryDx=0;entryDy=0;" edge="1" parent="1" source="rSFfT3zBbqfsnvvld2Uv-4" target="rSFfT3zBbqfsnvvld2Uv-107">
          <mxGeometry relative="1" as="geometry" />
        </mxCell>
        <mxCell id="rSFfT3zBbqfsnvvld2Uv-4" value="Actor" style="shape=umlActor;verticalLabelPosition=bottom;verticalAlign=top;html=1;outlineConnect=0;" vertex="1" parent="1">
          <mxGeometry x="70" y="340" width="30" height="60" as="geometry" />
        </mxCell>
        <mxCell id="rSFfT3zBbqfsnvvld2Uv-65" style="edgeStyle=elbowEdgeStyle;rounded=0;orthogonalLoop=1;jettySize=auto;html=1;exitX=1;exitY=0.5;exitDx=0;exitDy=0;" edge="1" parent="1" source="rSFfT3zBbqfsnvvld2Uv-9">
          <mxGeometry relative="1" as="geometry">
            <mxPoint x="450" y="450" as="targetPoint" />
            <Array as="points">
              <mxPoint x="450" y="380" />
            </Array>
          </mxGeometry>
        </mxCell>
        <mxCell id="rSFfT3zBbqfsnvvld2Uv-9" value="Signup Service&lt;br&gt;[leetassist/signup]" style="rounded=1;whiteSpace=wrap;html=1;" vertex="1" parent="1">
          <mxGeometry x="210" y="280" width="120" height="60" as="geometry" />
        </mxCell>
        <mxCell id="rSFfT3zBbqfsnvvld2Uv-58" style="edgeStyle=elbowEdgeStyle;rounded=0;orthogonalLoop=1;jettySize=auto;html=1;exitX=1;exitY=0.5;exitDx=0;exitDy=0;entryX=0.25;entryY=0;entryDx=0;entryDy=0;" edge="1" parent="1" source="rSFfT3zBbqfsnvvld2Uv-10" target="rSFfT3zBbqfsnvvld2Uv-51">
          <mxGeometry relative="1" as="geometry">
            <Array as="points">
              <mxPoint x="420" y="430" />
            </Array>
          </mxGeometry>
        </mxCell>
        <mxCell id="rSFfT3zBbqfsnvvld2Uv-10" value="Login Service&lt;br&gt;[leetassist/login]" style="rounded=1;whiteSpace=wrap;html=1;" vertex="1" parent="1">
          <mxGeometry x="210" y="370" width="120" height="60" as="geometry" />
        </mxCell>
        <mxCell id="rSFfT3zBbqfsnvvld2Uv-11" value="User Info DB" style="shape=cylinder3;whiteSpace=wrap;html=1;boundedLbl=1;backgroundOutline=1;size=15;" vertex="1" parent="1">
          <mxGeometry x="590" y="290" width="90" height="100" as="geometry" />
        </mxCell>
        <mxCell id="rSFfT3zBbqfsnvvld2Uv-18" value="User LeetCode MetaData" style="shape=cylinder3;whiteSpace=wrap;html=1;boundedLbl=1;backgroundOutline=1;size=15;" vertex="1" parent="1">
          <mxGeometry x="750" y="290" width="90" height="100" as="geometry" />
        </mxCell>
        <mxCell id="rSFfT3zBbqfsnvvld2Uv-40" value="&amp;nbsp;&lt;b&gt;userInfo&lt;/b&gt;" style="swimlane;fontStyle=0;childLayout=stackLayout;horizontal=1;startSize=30;horizontalStack=0;resizeParent=1;resizeParentMax=0;resizeLast=0;collapsible=1;marginBottom=0;whiteSpace=wrap;html=1;" vertex="1" collapsed="1" parent="1">
          <mxGeometry x="670" y="370" width="60" height="30" as="geometry">
            <mxRectangle x="440" y="385" width="93.33" height="150" as="alternateBounds" />
          </mxGeometry>
        </mxCell>
        <mxCell id="rSFfT3zBbqfsnvvld2Uv-41" value="user_id (PK)" style="text;strokeColor=none;fillColor=none;align=left;verticalAlign=middle;spacingLeft=4;spacingRight=4;overflow=hidden;points=[[0,0.5],[1,0.5]];portConstraint=eastwest;rotatable=0;whiteSpace=wrap;html=1;" vertex="1" parent="rSFfT3zBbqfsnvvld2Uv-40">
          <mxGeometry y="30" width="93.33" height="30" as="geometry" />
        </mxCell>
        <mxCell id="rSFfT3zBbqfsnvvld2Uv-42" value="user_name" style="text;strokeColor=none;fillColor=none;align=left;verticalAlign=middle;spacingLeft=4;spacingRight=4;overflow=hidden;points=[[0,0.5],[1,0.5]];portConstraint=eastwest;rotatable=0;whiteSpace=wrap;html=1;" vertex="1" parent="rSFfT3zBbqfsnvvld2Uv-40">
          <mxGeometry y="60" width="93.33" height="30" as="geometry" />
        </mxCell>
        <mxCell id="rSFfT3zBbqfsnvvld2Uv-43" value="user_pw&lt;div&gt;&lt;br&gt;&lt;/div&gt;" style="text;strokeColor=none;fillColor=none;align=left;verticalAlign=middle;spacingLeft=4;spacingRight=4;overflow=hidden;points=[[0,0.5],[1,0.5]];portConstraint=eastwest;rotatable=0;whiteSpace=wrap;html=1;" vertex="1" parent="rSFfT3zBbqfsnvvld2Uv-40">
          <mxGeometry y="90" width="93.33" height="30" as="geometry" />
        </mxCell>
        <mxCell id="rSFfT3zBbqfsnvvld2Uv-45" value="leetUserName" style="text;strokeColor=none;fillColor=none;align=left;verticalAlign=middle;spacingLeft=4;spacingRight=4;overflow=hidden;points=[[0,0.5],[1,0.5]];portConstraint=eastwest;rotatable=0;whiteSpace=wrap;html=1;" vertex="1" parent="rSFfT3zBbqfsnvvld2Uv-40">
          <mxGeometry y="120" width="93.33" height="30" as="geometry" />
        </mxCell>
        <mxCell id="rSFfT3zBbqfsnvvld2Uv-46" value="&lt;b&gt;leetCodeInfo&lt;/b&gt;" style="swimlane;fontStyle=0;childLayout=stackLayout;horizontal=1;startSize=30;horizontalStack=0;resizeParent=1;resizeParentMax=0;resizeLast=0;collapsible=1;marginBottom=0;whiteSpace=wrap;html=1;" vertex="1" collapsed="1" parent="1">
          <mxGeometry x="825" y="370" width="80" height="30" as="geometry">
            <mxRectangle x="740" y="170" width="120" height="90" as="alternateBounds" />
          </mxGeometry>
        </mxCell>
        <mxCell id="rSFfT3zBbqfsnvvld2Uv-47" value="user_id (PK)" style="text;strokeColor=none;fillColor=none;align=left;verticalAlign=middle;spacingLeft=4;spacingRight=4;overflow=hidden;points=[[0,0.5],[1,0.5]];portConstraint=eastwest;rotatable=0;whiteSpace=wrap;html=1;" vertex="1" parent="rSFfT3zBbqfsnvvld2Uv-46">
          <mxGeometry y="30" width="120" height="30" as="geometry" />
        </mxCell>
        <mxCell id="rSFfT3zBbqfsnvvld2Uv-50" value="leetUserName" style="text;strokeColor=none;fillColor=none;align=left;verticalAlign=middle;spacingLeft=4;spacingRight=4;overflow=hidden;points=[[0,0.5],[1,0.5]];portConstraint=eastwest;rotatable=0;whiteSpace=wrap;html=1;" vertex="1" parent="rSFfT3zBbqfsnvvld2Uv-46">
          <mxGeometry y="60" width="120" height="30" as="geometry" />
        </mxCell>
        <mxCell id="rSFfT3zBbqfsnvvld2Uv-101" style="edgeStyle=elbowEdgeStyle;rounded=0;orthogonalLoop=1;jettySize=auto;html=1;exitX=0;exitY=0.75;exitDx=0;exitDy=0;entryX=0.75;entryY=0;entryDx=0;entryDy=0;" edge="1" parent="1" source="rSFfT3zBbqfsnvvld2Uv-51" target="rSFfT3zBbqfsnvvld2Uv-71">
          <mxGeometry relative="1" as="geometry">
            <Array as="points">
              <mxPoint x="300" y="570" />
            </Array>
          </mxGeometry>
        </mxCell>
        <mxCell id="rSFfT3zBbqfsnvvld2Uv-51" value="LeetCode API Handler" style="rounded=1;whiteSpace=wrap;html=1;" vertex="1" parent="1">
          <mxGeometry x="390" y="450" width="120" height="60" as="geometry" />
        </mxCell>
        <mxCell id="rSFfT3zBbqfsnvvld2Uv-57" style="edgeStyle=elbowEdgeStyle;rounded=0;orthogonalLoop=1;jettySize=auto;html=1;exitX=0.625;exitY=0.2;exitDx=0;exitDy=0;exitPerimeter=0;" edge="1" parent="1" source="rSFfT3zBbqfsnvvld2Uv-52" target="rSFfT3zBbqfsnvvld2Uv-51">
          <mxGeometry relative="1" as="geometry" />
        </mxCell>
        <mxCell id="rSFfT3zBbqfsnvvld2Uv-52" value="LeetCode" style="ellipse;shape=cloud;whiteSpace=wrap;html=1;" vertex="1" parent="1">
          <mxGeometry x="390" y="550" width="120" height="80" as="geometry" />
        </mxCell>
        <mxCell id="rSFfT3zBbqfsnvvld2Uv-59" style="edgeStyle=elbowEdgeStyle;rounded=0;orthogonalLoop=1;jettySize=auto;html=1;exitX=1;exitY=0.5;exitDx=0;exitDy=0;entryX=0.5;entryY=1;entryDx=0;entryDy=0;entryPerimeter=0;" edge="1" parent="1" source="rSFfT3zBbqfsnvvld2Uv-51" target="rSFfT3zBbqfsnvvld2Uv-18">
          <mxGeometry relative="1" as="geometry">
            <Array as="points">
              <mxPoint x="795" y="430" />
            </Array>
          </mxGeometry>
        </mxCell>
        <mxCell id="rSFfT3zBbqfsnvvld2Uv-64" style="edgeStyle=elbowEdgeStyle;rounded=0;orthogonalLoop=1;jettySize=auto;html=1;exitX=0.25;exitY=1;exitDx=0;exitDy=0;entryX=0.4;entryY=0.1;entryDx=0;entryDy=0;entryPerimeter=0;" edge="1" parent="1" source="rSFfT3zBbqfsnvvld2Uv-51" target="rSFfT3zBbqfsnvvld2Uv-52">
          <mxGeometry relative="1" as="geometry">
            <Array as="points">
              <mxPoint x="438" y="530" />
            </Array>
          </mxGeometry>
        </mxCell>
        <mxCell id="rSFfT3zBbqfsnvvld2Uv-67" style="edgeStyle=elbowEdgeStyle;rounded=0;orthogonalLoop=1;jettySize=auto;html=1;exitX=1;exitY=0.5;exitDx=0;exitDy=0;entryX=0.5;entryY=1;entryDx=0;entryDy=0;entryPerimeter=0;" edge="1" parent="1" source="rSFfT3zBbqfsnvvld2Uv-51" target="rSFfT3zBbqfsnvvld2Uv-11">
          <mxGeometry relative="1" as="geometry">
            <Array as="points">
              <mxPoint x="635" y="460" />
            </Array>
          </mxGeometry>
        </mxCell>
        <mxCell id="rSFfT3zBbqfsnvvld2Uv-70" style="edgeStyle=elbowEdgeStyle;rounded=0;orthogonalLoop=1;jettySize=auto;html=1;exitX=1;exitY=0.5;exitDx=0;exitDy=0;exitPerimeter=0;entryX=0;entryY=0.5;entryDx=0;entryDy=0;entryPerimeter=0;curved=1;endArrow=none;startFill=0;dashed=1;" edge="1" parent="1" source="rSFfT3zBbqfsnvvld2Uv-11" target="rSFfT3zBbqfsnvvld2Uv-18">
          <mxGeometry relative="1" as="geometry">
            <Array as="points">
              <mxPoint x="720" y="350" />
            </Array>
          </mxGeometry>
        </mxCell>
        <mxCell id="rSFfT3zBbqfsnvvld2Uv-81" style="edgeStyle=elbowEdgeStyle;rounded=0;orthogonalLoop=1;jettySize=auto;html=1;exitX=1;exitY=0.5;exitDx=0;exitDy=0;entryX=0;entryY=0.5;entryDx=0;entryDy=0;" edge="1" parent="1" source="rSFfT3zBbqfsnvvld2Uv-71" target="rSFfT3zBbqfsnvvld2Uv-79">
          <mxGeometry relative="1" as="geometry" />
        </mxCell>
        <mxCell id="rSFfT3zBbqfsnvvld2Uv-100" style="edgeStyle=elbowEdgeStyle;rounded=0;orthogonalLoop=1;jettySize=auto;html=1;exitX=0.25;exitY=0;exitDx=0;exitDy=0;entryX=0;entryY=0.25;entryDx=0;entryDy=0;" edge="1" parent="1" source="rSFfT3zBbqfsnvvld2Uv-71" target="rSFfT3zBbqfsnvvld2Uv-51">
          <mxGeometry relative="1" as="geometry">
            <Array as="points">
              <mxPoint x="240" y="550" />
            </Array>
          </mxGeometry>
        </mxCell>
        <mxCell id="rSFfT3zBbqfsnvvld2Uv-71" value="Assist Service&lt;br&gt;[leetassist/gptHelp]" style="rounded=1;whiteSpace=wrap;html=1;" vertex="1" parent="1">
          <mxGeometry x="210" y="640" width="120" height="60" as="geometry" />
        </mxCell>
        <mxCell id="rSFfT3zBbqfsnvvld2Uv-72" value="&lt;font style=&quot;font-size: 11px;&quot;&gt;Delete Service&lt;br&gt;[leetassist/deleteHelp]&lt;/font&gt;" style="rounded=1;whiteSpace=wrap;html=1;" vertex="1" parent="1">
          <mxGeometry x="210" y="1040" width="120" height="60" as="geometry" />
        </mxCell>
        <mxCell id="rSFfT3zBbqfsnvvld2Uv-104" style="edgeStyle=elbowEdgeStyle;rounded=0;orthogonalLoop=1;jettySize=auto;html=1;exitX=0.5;exitY=0;exitDx=0;exitDy=0;entryX=0;entryY=0.5;entryDx=0;entryDy=0;" edge="1" parent="1" source="rSFfT3zBbqfsnvvld2Uv-77" target="rSFfT3zBbqfsnvvld2Uv-103">
          <mxGeometry relative="1" as="geometry">
            <Array as="points">
              <mxPoint x="270" y="740" />
            </Array>
          </mxGeometry>
        </mxCell>
        <mxCell id="rSFfT3zBbqfsnvvld2Uv-77" value="Save GPT Response Service&lt;br&gt;[leetassist/saveHelp]" style="rounded=1;whiteSpace=wrap;html=1;" vertex="1" parent="1">
          <mxGeometry x="210" y="750" width="120" height="60" as="geometry" />
        </mxCell>
        <mxCell id="rSFfT3zBbqfsnvvld2Uv-106" style="edgeStyle=elbowEdgeStyle;rounded=0;orthogonalLoop=1;jettySize=auto;html=1;exitX=1;exitY=0.75;exitDx=0;exitDy=0;entryX=1;entryY=0.5;entryDx=0;entryDy=0;" edge="1" parent="1" source="rSFfT3zBbqfsnvvld2Uv-79" target="rSFfT3zBbqfsnvvld2Uv-103">
          <mxGeometry relative="1" as="geometry">
            <Array as="points">
              <mxPoint x="530" y="720" />
            </Array>
          </mxGeometry>
        </mxCell>
        <mxCell id="rSFfT3zBbqfsnvvld2Uv-79" value="ChatGPT API&amp;nbsp; Handler" style="rounded=1;whiteSpace=wrap;html=1;" vertex="1" parent="1">
          <mxGeometry x="400" y="640" width="120" height="60" as="geometry" />
        </mxCell>
        <mxCell id="rSFfT3zBbqfsnvvld2Uv-80" value="ChatGPT" style="ellipse;shape=cloud;whiteSpace=wrap;html=1;" vertex="1" parent="1">
          <mxGeometry x="575" y="630" width="120" height="80" as="geometry" />
        </mxCell>
        <mxCell id="rSFfT3zBbqfsnvvld2Uv-82" style="edgeStyle=elbowEdgeStyle;rounded=0;orthogonalLoop=1;jettySize=auto;html=1;exitX=1;exitY=0.25;exitDx=0;exitDy=0;entryX=0.123;entryY=0.314;entryDx=0;entryDy=0;entryPerimeter=0;" edge="1" parent="1" source="rSFfT3zBbqfsnvvld2Uv-79" target="rSFfT3zBbqfsnvvld2Uv-80">
          <mxGeometry relative="1" as="geometry" />
        </mxCell>
        <mxCell id="rSFfT3zBbqfsnvvld2Uv-85" style="edgeStyle=elbowEdgeStyle;rounded=0;orthogonalLoop=1;jettySize=auto;html=1;exitX=0.16;exitY=0.55;exitDx=0;exitDy=0;exitPerimeter=0;entryX=0.985;entryY=0.567;entryDx=0;entryDy=0;entryPerimeter=0;" edge="1" parent="1" source="rSFfT3zBbqfsnvvld2Uv-80" target="rSFfT3zBbqfsnvvld2Uv-79">
          <mxGeometry relative="1" as="geometry" />
        </mxCell>
        <mxCell id="rSFfT3zBbqfsnvvld2Uv-87" style="edgeStyle=elbowEdgeStyle;rounded=0;orthogonalLoop=1;jettySize=auto;html=1;exitX=1;exitY=0.5;exitDx=0;exitDy=0;entryX=0.5;entryY=1;entryDx=0;entryDy=0;entryPerimeter=0;" edge="1" parent="1" source="rSFfT3zBbqfsnvvld2Uv-77" target="rSFfT3zBbqfsnvvld2Uv-18">
          <mxGeometry relative="1" as="geometry">
            <Array as="points">
              <mxPoint x="795" y="780" />
            </Array>
          </mxGeometry>
        </mxCell>
        <mxCell id="rSFfT3zBbqfsnvvld2Uv-88" value="Get Saved Responses Service&lt;div&gt;[leetassist/getList]&lt;/div&gt;" style="rounded=1;whiteSpace=wrap;html=1;" vertex="1" parent="1">
          <mxGeometry x="210" y="850" width="120" height="60" as="geometry" />
        </mxCell>
        <mxCell id="rSFfT3zBbqfsnvvld2Uv-90" style="edgeStyle=elbowEdgeStyle;rounded=0;orthogonalLoop=1;jettySize=auto;html=1;exitX=1;exitY=0.5;exitDx=0;exitDy=0;entryX=0.5;entryY=1;entryDx=0;entryDy=0;entryPerimeter=0;" edge="1" parent="1" source="rSFfT3zBbqfsnvvld2Uv-72" target="rSFfT3zBbqfsnvvld2Uv-18">
          <mxGeometry relative="1" as="geometry">
            <Array as="points">
              <mxPoint x="795" y="880" />
            </Array>
          </mxGeometry>
        </mxCell>
        <mxCell id="rSFfT3zBbqfsnvvld2Uv-91" style="edgeStyle=elbowEdgeStyle;rounded=0;orthogonalLoop=1;jettySize=auto;html=1;exitX=1;exitY=0.5;exitDx=0;exitDy=0;entryX=0.5;entryY=1;entryDx=0;entryDy=0;entryPerimeter=0;" edge="1" parent="1" source="rSFfT3zBbqfsnvvld2Uv-88" target="rSFfT3zBbqfsnvvld2Uv-18">
          <mxGeometry relative="1" as="geometry">
            <Array as="points">
              <mxPoint x="795" y="820" />
            </Array>
          </mxGeometry>
        </mxCell>
        <mxCell id="rSFfT3zBbqfsnvvld2Uv-94" value="DELETE Ops" style="text;html=1;align=center;verticalAlign=middle;whiteSpace=wrap;rounded=0;" vertex="1" parent="1">
          <mxGeometry x="330" y="1040" width="80" height="30" as="geometry" />
        </mxCell>
        <mxCell id="rSFfT3zBbqfsnvvld2Uv-95" value="GET Ops" style="text;html=1;align=center;verticalAlign=middle;whiteSpace=wrap;rounded=0;" vertex="1" parent="1">
          <mxGeometry x="330" y="850" width="70" height="30" as="geometry" />
        </mxCell>
        <mxCell id="rSFfT3zBbqfsnvvld2Uv-96" value="POST Ops" style="text;html=1;align=center;verticalAlign=middle;whiteSpace=wrap;rounded=0;" vertex="1" parent="1">
          <mxGeometry x="330" y="750" width="70" height="30" as="geometry" />
        </mxCell>
        <mxCell id="rSFfT3zBbqfsnvvld2Uv-103" value="&lt;font style=&quot;font-size: 11px;&quot;&gt;Cache&lt;/font&gt;" style="shape=process;whiteSpace=wrap;html=1;backgroundOutline=1;" vertex="1" parent="1">
          <mxGeometry x="425" y="720" width="60" height="30" as="geometry" />
        </mxCell>
        <mxCell id="rSFfT3zBbqfsnvvld2Uv-107" value="&lt;font style=&quot;font-size: 11px;&quot;&gt;Update GPT Response Service&lt;/font&gt;&lt;div&gt;&lt;font style=&quot;font-size: 11px;&quot;&gt;[leetassist/updateHelp]&lt;/font&gt;&lt;/div&gt;" style="rounded=1;whiteSpace=wrap;html=1;" vertex="1" parent="1">
          <mxGeometry x="210" y="950" width="120" height="60" as="geometry" />
        </mxCell>
        <mxCell id="rSFfT3zBbqfsnvvld2Uv-109" style="edgeStyle=elbowEdgeStyle;rounded=0;orthogonalLoop=1;jettySize=auto;html=1;exitX=1;exitY=0.5;exitDx=0;exitDy=0;entryX=0.5;entryY=1;entryDx=0;entryDy=0;entryPerimeter=0;" edge="1" parent="1" source="rSFfT3zBbqfsnvvld2Uv-107" target="rSFfT3zBbqfsnvvld2Uv-18">
          <mxGeometry relative="1" as="geometry">
            <Array as="points">
              <mxPoint x="795" y="960" />
            </Array>
          </mxGeometry>
        </mxCell>
        <mxCell id="rSFfT3zBbqfsnvvld2Uv-110" value="PUT Ops" style="text;html=1;align=center;verticalAlign=middle;whiteSpace=wrap;rounded=0;" vertex="1" parent="1">
          <mxGeometry x="330" y="950" width="70" height="30" as="geometry" />
        </mxCell>
        <mxCell id="rSFfT3zBbqfsnvvld2Uv-112" value="POST Ops" style="text;html=1;align=center;verticalAlign=middle;whiteSpace=wrap;rounded=0;" vertex="1" parent="1">
          <mxGeometry x="330" y="640" width="70" height="30" as="geometry" />
        </mxCell>
        <mxCell id="rSFfT3zBbqfsnvvld2Uv-113" value="POST Ops" style="text;html=1;align=center;verticalAlign=middle;whiteSpace=wrap;rounded=0;" vertex="1" parent="1">
          <mxGeometry x="170" y="600" width="70" height="30" as="geometry" />
        </mxCell>
        <mxCell id="rSFfT3zBbqfsnvvld2Uv-114" value="POST Ops" style="text;html=1;align=center;verticalAlign=middle;whiteSpace=wrap;rounded=0;" vertex="1" parent="1">
          <mxGeometry x="330" y="370" width="70" height="30" as="geometry" />
        </mxCell>
        <mxCell id="rSFfT3zBbqfsnvvld2Uv-115" value="POST Ops" style="text;html=1;align=center;verticalAlign=middle;whiteSpace=wrap;rounded=0;" vertex="1" parent="1">
          <mxGeometry x="330" y="280" width="70" height="30" as="geometry" />
        </mxCell>
      </root>
    </mxGraphModel>
  </diagram>
</mxfile>
